<?xml version="1.0" standalone="no"?>
<!DOCTYPE svg PUBLIC "-//W3C//DTD SVG 20010904//EN"
 "http://www.w3.org/TR/2001/REC-SVG-20010904/DTD/svg10.dtd">
<svg version="1.0" xmlns="http://www.w3.org/2000/svg"
 width="600.000000pt" height="327.000000pt" viewBox="0 0 600.000000 327.000000"
 preserveAspectRatio="xMidYMid meet">
<g transform="translate(0.000000,327.000000) scale(0.100000,-0.100000)"
fill="#000000" stroke="none">
<path d="M2970 2667 c-14 -18 -143 -173 -287 -345 l-263 -312 0 -55 0 -55 73
59 c48 40 143 145 287 319 118 143 217 260 220 261 3 0 102 -117 220 -261 142
-171 240 -280 288 -320 l72 -59 0 56 0 56 -263 312 c-144 172 -273 326 -287
344 -14 18 -27 32 -30 32 -3 0 -16 -14 -30 -32z m77 -54 c21 -27 44 -54 51
-62 16 -16 112 -133 160 -194 19 -23 48 -58 66 -77 17 -19 49 -57 71 -85 21
-27 44 -54 50 -60 58 -55 133 -175 109 -175 -22 0 -145 115 -146 137 0 4 -9
14 -19 21 -11 7 -45 46 -76 85 -32 40 -67 82 -80 94 -12 13 -34 39 -50 59 -15
21 -39 49 -53 64 -14 14 -45 49 -69 78 -31 38 -50 52 -65 50 -13 -2 -72 -64
-156 -164 -168 -201 -205 -244 -255 -301 -22 -25 -44 -52 -48 -59 -4 -8 -12
-14 -18 -14 -5 0 -22 -11 -37 -25 l-27 -25 -3 24 c-2 15 6 36 21 53 41 46 229
271 264 315 18 22 50 60 70 83 21 24 72 84 113 134 41 50 78 91 82 91 3 0 24
-21 45 -47z"/>
<path d="M2853 2238 l-143 -111 0 -464 0 -463 55 0 55 0 2 441 3 441 63 50 62
50 0 -488 -1 -489 51 0 51 0 -1 489 0 488 62 -50 63 -50 3 -441 2 -441 55 0
55 0 0 463 0 464 -144 111 c-80 62 -146 112 -148 111 -2 0 -67 -50 -145 -111z
m268 -10 c19 -14 58 -45 87 -67 l52 -41 1 -78 c1 -42 1 -80 0 -85 -1 -4 -1
-169 -2 -367 l0 -360 -25 0 c-22 0 -24 4 -25 53 -1 28 -1 55 0 59 0 3 0 116 0
250 0 133 0 298 0 364 l0 122 -57 51 c-62 56 -99 72 -113 50 -5 -8 -9 -81 -9
-164 0 -82 -1 -293 -1 -467 l-1 -318 -26 0 -27 0 -2 320 c-2 180 1 322 6 325
6 3 10 -78 10 -191 0 -108 2 -199 5 -202 4 -3 6 187 6 423 l0 428 43 -39 c24
-22 59 -51 78 -66z m-132 -19 c-1 -27 -6 -52 -10 -55 -5 -3 -9 2 -9 10 0 8 -8
20 -18 25 -14 8 -31 0 -81 -39 -35 -27 -65 -51 -68 -53 -11 -11 -13 -67 -12
-242 2 -335 -1 -607 -7 -616 -3 -5 -14 -9 -25 -9 -19 0 -19 9 -19 441 1 504
-10 445 100 524 30 22 57 42 60 45 3 3 20 18 39 34 35 28 35 28 43 7 4 -12 7
-44 7 -72z m-5 -104 c-4 -8 -8 -15 -10 -15 -2 0 -4 7 -4 15 0 8 4 15 10 15 5
0 7 -7 4 -15z m6 -127 c0 -62 -3 -88 -10 -78 -14 23 -9 170 6 170 2 0 4 -42 4
-92z"/>
<path d="M2538 1927 l-118 -92 0 -317 0 -318 55 0 55 0 0 294 0 293 64 49 64
49 4 68 c2 37 1 67 -2 66 -3 0 -58 -42 -122 -92z m98 -2 c-1 -13 -16 -34 -32
-46 -16 -12 -46 -38 -66 -58 l-38 -35 0 -124 c0 -87 -3 -121 -11 -116 -8 4 -8
1 -1 -12 5 -11 10 -83 11 -161 l2 -143 -25 0 c-21 0 -24 5 -28 43 -7 67 -2
393 6 405 4 7 3 12 -2 12 -5 0 -8 29 -7 65 1 63 3 67 40 98 67 55 140 105 147
101 4 -2 5 -15 4 -29z"/>
<path d="M3341 1953 l0 -68 65 -50 65 -50 -1 -292 -1 -293 56 0 55 0 0 318 0
318 -47 35 c-27 20 -81 62 -120 93 l-73 57 1 -68z m134 -66 l79 -63 4 -63 c2
-38 -1 -68 -9 -77 -6 -8 -7 -14 -3 -14 11 0 11 -426 1 -437 -5 -4 -16 -2 -25
3 -15 10 -17 37 -17 275 0 187 -3 268 -12 276 -6 7 -13 16 -15 20 -1 5 -29 27
-61 51 -52 39 -57 46 -55 77 2 40 0 41 113 -48z"/>
<path d="M1770 925 l0 -117 84 3 c65 3 89 8 105 23 25 22 27 53 6 76 -12 13
-13 22 -3 48 11 29 10 34 -10 54 -19 19 -36 23 -102 26 l-80 4 0 -117z m136
61 c26 -20 10 -33 -43 -38 -41 -3 -43 -2 -43 24 0 25 4 28 33 28 18 0 42 -6
53 -14z m14 -91 c19 -23 0 -37 -54 -41 -45 -2 -46 -2 -46 27 0 28 2 29 44 29
27 0 48 -6 56 -15z"/>
<path d="M2011 973 c1 -121 29 -163 111 -163 25 0 46 8 65 24 26 23 28 30 31
115 l4 91 -29 0 -28 0 0 -81 c0 -68 -3 -83 -19 -95 -21 -15 -55 -10 -68 10 -4
6 -8 46 -8 89 l0 77 -30 0 -30 0 1 -67z"/>
<path d="M2270 925 l0 -115 25 0 25 0 0 115 0 115 -25 0 -25 0 0 -115z"/>
<path d="M2370 925 l0 -115 85 0 c84 0 85 0 85 25 0 24 -3 25 -55 25 l-55 0 0
90 0 90 -30 0 -30 0 0 -115z"/>
<path d="M2570 925 l0 -115 63 1 c87 0 128 16 150 59 48 93 -21 170 -153 170
l-60 0 0 -115z m152 48 c10 -9 18 -30 18 -46 0 -44 -25 -67 -74 -67 l-41 0 -2
65 -2 65 41 0 c25 0 49 -7 60 -17z"/>
<path d="M2835 925 l0 -115 29 0 28 0 -4 65 c-2 36 0 65 4 65 4 0 8 -4 8 -10
0 -16 54 -100 65 -100 6 0 24 25 40 55 17 30 32 55 35 55 3 0 3 -29 2 -65 -4
-64 -3 -65 22 -65 l26 0 0 115 c0 113 0 115 -22 115 -18 0 -32 -16 -62 -70
l-40 -70 -17 27 c-65 107 -70 113 -92 113 -21 0 -22 -3 -22 -115z m52 56 c13
-20 8 -31 -14 -31 -7 0 -13 11 -13 25 0 30 11 32 27 6z m175 -10 c3 -21 1 -28
-9 -24 -14 5 -18 35 -6 46 10 10 10 9 15 -22z"/>
<path d="M3170 935 c-25 -59 -46 -111 -48 -116 -2 -5 8 -9 22 -9 18 0 30 8 38
25 10 22 17 25 63 25 46 0 53 -3 63 -25 9 -18 19 -25 41 -25 l30 0 -54 113
c-48 101 -56 112 -82 115 -27 2 -30 -2 -73 -103z m110 -27 c0 -5 -16 -8 -35
-8 -19 0 -35 2 -35 5 0 2 8 20 17 40 l17 36 18 -33 c9 -18 17 -36 18 -40z
m-85 -18 c3 -5 1 -10 -4 -10 -6 0 -11 5 -11 10 0 6 2 10 4 10 3 0 8 -4 11 -10z
m122 -6 c-3 -3 -12 -4 -19 -1 -8 3 -5 6 6 6 11 1 17 -2 13 -5z"/>
<path d="M3416 1019 c-17 -14 -26 -30 -26 -49 0 -34 24 -53 88 -70 42 -11 56
-33 26 -44 -24 -9 -47 -7 -75 8 -23 12 -27 11 -37 -5 -15 -23 5 -39 57 -46 74
-10 121 15 121 66 0 36 -14 47 -79 67 -31 9 -51 20 -51 29 0 20 46 30 77 16
27 -12 42 -3 43 25 0 30 -107 32 -144 3z"/>
<path d="M3580 1015 c0 -22 4 -25 39 -25 l38 0 -3 -90 -2 -90 29 0 29 0 0 90
0 90 35 0 c31 0 35 3 35 25 l0 25 -100 0 -100 0 0 -25z m120 -9 c0 -3 -4 -8
-10 -11 -5 -3 -10 -1 -10 4 0 6 5 11 10 11 6 0 10 -2 10 -4z"/>
<path d="M3810 925 l0 -115 90 0 c90 0 90 0 90 26 0 25 -1 25 -62 23 -62 -3
-63 -2 -66 25 l-4 28 56 -4 c52 -3 56 -2 56 20 0 20 -5 22 -56 22 -51 0 -55 2
-52 22 3 20 8 22 61 19 55 -2 57 -2 57 23 0 26 0 26 -85 26 l-85 0 0 -115z
m43 10 c4 -8 2 -17 -3 -20 -6 -4 -10 3 -10 14 0 25 6 27 13 6z"/>
<path d="M4030 925 l0 -115 25 0 c22 0 25 4 25 35 0 30 3 35 24 35 17 0 31
-11 46 -35 17 -27 28 -35 51 -35 36 0 36 3 3 46 -15 19 -21 34 -15 34 6 0 19
15 27 34 14 29 15 37 3 62 -19 39 -53 54 -126 54 l-63 0 0 -115z m138 36 c4
-29 -12 -41 -55 -41 -31 0 -33 2 -33 36 l0 35 43 -3 c36 -3 43 -7 45 -27z
m-98 -66 c0 -8 -4 -17 -10 -20 -6 -4 -10 5 -10 20 0 15 4 24 10 20 6 -3 10
-12 10 -20z"/>
<path d="M2180 640 l0 -70 50 0 c30 0 50 4 50 11 0 7 -15 10 -40 7 -36 -3 -40
-1 -40 19 0 20 5 23 35 23 19 0 35 5 35 10 0 6 -16 10 -35 10 -28 0 -35 4 -35
20 0 17 7 20 40 20 22 0 40 5 40 10 0 6 -22 10 -50 10 l-50 0 0 -70z"/>
<path d="M2335 640 c0 -81 13 -95 17 -18 l3 53 40 -52 c22 -29 43 -52 48 -53
4 0 7 32 7 70 0 46 -4 70 -11 70 -8 0 -10 -17 -5 -57 4 -33 3 -53 -2 -48 -5 6
-26 31 -46 58 -21 26 -41 47 -45 47 -3 0 -6 -31 -6 -70z"/>
<path d="M2532 687 c-47 -50 -13 -121 56 -115 34 3 37 6 40 36 2 17 -1 32 -6
32 -5 0 -7 -11 -5 -24 4 -18 0 -25 -18 -29 -34 -9 -69 17 -69 52 0 39 22 55
65 48 35 -6 48 6 19 17 -31 12 -61 6 -82 -17z"/>
<path d="M2690 640 c0 -40 4 -70 10 -70 6 0 10 30 10 70 0 40 -4 70 -10 70 -6
0 -10 -30 -10 -70z"/>
<path d="M2780 640 c0 -46 4 -70 11 -70 8 0 10 17 5 57 -4 32 -3 53 2 48 4 -6
25 -31 46 -57 20 -27 42 -48 47 -48 5 0 9 32 9 70 0 40 -4 70 -10 70 -5 0 -10
-25 -10 -56 l0 -56 -46 56 c-25 31 -47 56 -50 56 -2 0 -4 -31 -4 -70z"/>
<path d="M2960 640 l0 -70 50 0 c28 0 50 5 50 10 0 6 -18 10 -40 10 -33 0 -40
3 -40 20 0 16 7 20 35 20 19 0 35 5 35 10 0 6 -16 10 -35 10 -28 0 -35 4 -35
20 0 17 7 20 40 20 22 0 40 5 40 10 0 6 -22 10 -50 10 l-50 0 0 -70z"/>
<path d="M3120 708 c-1 -2 -2 -33 -3 -71 l-2 -67 53 0 c33 0 51 4 47 10 -3 6
-24 10 -46 10 -32 0 -39 3 -39 20 0 17 7 20 41 20 24 0 38 4 34 10 -3 6 -22
10 -41 10 -27 0 -34 4 -34 20 0 17 7 20 40 20 22 0 40 5 40 10 0 8 -89 16 -90
8z"/>
<path d="M3270 640 c0 -40 4 -70 10 -70 6 0 10 9 10 20 0 15 7 20 25 20 14 0
29 -8 35 -20 6 -11 16 -20 22 -20 6 0 4 9 -5 23 -12 19 -12 24 -1 35 36 34 3
82 -57 82 l-39 0 0 -70z m85 20 c0 -21 -5 -26 -32 -28 -31 -3 -33 -1 -33 28 0
29 2 31 33 28 27 -2 32 -7 32 -28z"/>
<path d="M3440 640 c0 -40 4 -70 10 -70 6 0 10 30 10 70 0 40 -4 70 -10 70 -6
0 -10 -30 -10 -70z"/>
<path d="M3520 640 c0 -80 17 -96 22 -19 l3 50 39 -50 c21 -28 42 -51 47 -51
5 0 9 32 9 70 0 81 -17 95 -22 19 l-3 -51 -40 50 c-22 28 -43 51 -47 52 -5 0
-8 -31 -8 -70z"/>
<path d="M3722 693 c-12 -10 -24 -30 -28 -45 -11 -50 55 -93 110 -72 18 7 23
64 6 64 -5 0 -10 -11 -10 -24 0 -29 -21 -39 -55 -26 -33 13 -43 55 -19 81 15
17 27 20 59 16 37 -5 38 -4 21 9 -27 19 -59 18 -84 -3z"/>
</g>
</svg>
